<svg xmlns="http://www.w3.org/2000/svg" fill="none" viewBox="-0.5 -0.5 48 48" id="Calendar-Mark--Streamline-Plump.svg"><desc>Calendar Mark Streamline Icon: https://streamlinehq.com</desc><g id="calendar-mark--calendar-date-day-month-mark"><path id="Rectangle 1097" fill="#ffffff" d="M3.7786041666666663 39.140229166666664c0.3084375 2.15025 1.9514791666666667 3.770770833333333 4.104666666666667 4.057666666666667 3.0647916666666664 0.4092916666666666 8.205416666666666 0.8802708333333333 15.616729166666666 0.8802708333333333 7.410333333333333 0 12.550958333333332 -0.4709791666666666 15.616729166666666 -0.8802708333333333 2.1531874999999996 -0.2868958333333333 3.796229166666666 -1.9074166666666665 4.104666666666667 -4.057666666666667 0.39949999999999997 -2.78475 0.8411041666666667 -7.2145 0.8411041666666667 -13.176645833333334 0 -5.963125 -0.4416041666666667 -10.392875 -0.8411041666666667 -13.177624999999999 -0.3084375 -2.15025 -1.9514791666666667 -3.7697916666666664 -4.104666666666667 -4.057666666666667 -3.0647916666666664 -0.40831249999999997 -8.205416666666666 -0.8792916666666667 -15.616729166666666 -0.8792916666666667 -7.410333333333333 0 -12.550958333333332 0.47 -15.616729166666666 0.8792916666666667 -2.1531874999999996 0.2868958333333333 -3.796229166666666 1.9074166666666665 -4.104666666666667 4.057666666666667C3.3791041666666666 15.570708333333332 2.9375 20.00045833333333 2.9375 25.963583333333332c0 5.9621458333333335 0.4416041666666667 10.391895833333333 0.8411041666666667 13.176645833333334Z" stroke-width="1"></path><path id="Subtract" stroke="#2859c5" stroke-linecap="round" stroke-linejoin="round" d="M10.773770833333334 8.399291666666667c-1.1133125 0.10770833333333334 -2.075833333333333 0.2203125 -2.8905 0.329 -2.1531874999999996 0.2868958333333333 -3.796229166666666 1.9074166666666665 -4.104666666666667 4.057666666666667C3.3791041666666666 15.570708333333332 2.9375 20.001437499999998 2.9375 25.963583333333332c0 5.963125 0.4416041666666667 10.392875 0.8411041666666667 13.177624999999999 0.3084375 2.15025 1.9514791666666667 3.7697916666666664 4.104666666666667 4.057666666666667 3.0647916666666664 0.40831249999999997 8.205416666666666 0.8792916666666667 15.616729166666666 0.8792916666666667 7.410333333333333 0 12.550958333333332 -0.4709791666666666 15.616729166666666 -0.8792916666666667 2.1531874999999996 -0.287875 3.796229166666666 -1.9074166666666665 4.104666666666667 -4.057666666666667 0.39949999999999997 -2.78475 0.8411041666666667 -7.215479166666666 0.8411041666666667 -13.177624999999999 0 -5.963125 -0.4416041666666667 -10.392875 -0.8411041666666667 -13.177624999999999 -0.3084375 -2.15025 -1.9514791666666667 -3.7697916666666664 -4.104666666666667 -4.057666666666667a80.4610625 80.4610625 0 0 0 -2.8905 -0.329" stroke-width="1"></path><path id="Subtract_2" stroke="#2859c5" stroke-linecap="round" stroke-linejoin="round" d="M28.395833333333332 7.921458333333333a160.6195625 160.6195625 0 0 0 -4.895833333333333 -0.07245833333333333c-1.7585833333333334 0 -3.389875 0.0264375 -4.895833333333333 0.07245833333333333" stroke-width="1"></path><path id="Vector 1380" stroke="#2859c5" stroke-linecap="round" stroke-linejoin="round" d="M21.541666666666664 24.479166666666664h3.9166666666666665" stroke-width="1"></path><path id="Vector 1381" stroke="#2859c5" stroke-linecap="round" stroke-linejoin="round" d="M31.333333333333332 24.479166666666664h3.9166666666666665" stroke-width="1"></path><path id="Vector 1382" stroke="#2859c5" stroke-linecap="round" stroke-linejoin="round" d="M15.666666666666666 24.479166666666664h-3.9166666666666665" stroke-width="1"></path><path id="Vector 1383" stroke="#2859c5" stroke-linecap="round" stroke-linejoin="round" d="M21.541666666666664 34.27083333333333h3.9166666666666665" stroke-width="1"></path><path id="Vector 1384" stroke="#2859c5" stroke-linecap="round" stroke-linejoin="round" d="M31.333333333333332 34.27083333333333h3.9166666666666665" stroke-width="1"></path><path id="Vector 1385" stroke="#2859c5" stroke-linecap="round" stroke-linejoin="round" d="M15.666666666666666 34.27083333333333h-3.9166666666666665" stroke-width="1"></path><path id="Vector" fill="#8fbffa" d="M10.783562499999999 9.076875c0.042104166666666665 2.0366666666666666 1.3796458333333332 3.6170416666666663 3.4163124999999996 3.6483749999999997a32.288999999999994 32.288999999999994 0 0 0 0.97525 0c2.0366666666666666 -0.03133333333333333 3.3742083333333333 -1.611708333333333 3.4163124999999996 -3.6483749999999997a59.985708333333335 59.985708333333335 0 0 0 0 -2.487083333333333c-0.042104166666666665 -2.0366666666666666 -1.3796458333333332 -3.6170416666666663 -3.4163124999999996 -3.6483749999999997a31.768083333333333 31.768083333333333 0 0 0 -0.97525 0c-2.0366666666666666 0.03133333333333333 -3.3742083333333333 1.611708333333333 -3.4163124999999996 3.6483749999999997a59.985708333333335 59.985708333333335 0 0 0 0 2.487083333333333Z" stroke-width="1"></path><path id="Vector_2" fill="#8fbffa" d="M28.408562500000002 9.076875c0.042104166666666665 2.0366666666666666 1.3796458333333332 3.6170416666666663 3.4163124999999996 3.6483749999999997a32.288999999999994 32.288999999999994 0 0 0 0.97525 0c2.0366666666666666 -0.03133333333333333 3.3742083333333333 -1.611708333333333 3.4163124999999996 -3.6483749999999997a59.985708333333335 59.985708333333335 0 0 0 0 -2.487083333333333c-0.042104166666666665 -2.0366666666666666 -1.3796458333333332 -3.6170416666666663 -3.4163124999999996 -3.6483749999999997a31.768083333333333 31.768083333333333 0 0 0 -0.97525 0c-2.0366666666666666 0.03133333333333333 -3.3742083333333333 1.611708333333333 -3.4163124999999996 3.6483749999999997a59.985708333333335 59.985708333333335 0 0 0 0 2.487083333333333Z" stroke-width="1"></path><path id="Vector_3" stroke="#2859c5" stroke-linecap="round" stroke-linejoin="round" d="M10.783562499999999 9.076875c0.042104166666666665 2.0366666666666666 1.3796458333333332 3.6170416666666663 3.4163124999999996 3.6483749999999997a32.288999999999994 32.288999999999994 0 0 0 0.97525 0c2.0366666666666666 -0.03133333333333333 3.3742083333333333 -1.611708333333333 3.4163124999999996 -3.6483749999999997a59.985708333333335 59.985708333333335 0 0 0 0 -2.487083333333333c-0.042104166666666665 -2.0366666666666666 -1.3796458333333332 -3.6170416666666663 -3.4163124999999996 -3.6483749999999997a31.768083333333333 31.768083333333333 0 0 0 -0.97525 0c-2.0366666666666666 0.03133333333333333 -3.3742083333333333 1.611708333333333 -3.4163124999999996 3.6483749999999997a59.985708333333335 59.985708333333335 0 0 0 0 2.487083333333333Z" stroke-width="1"></path><path id="Vector_4" stroke="#2859c5" stroke-linecap="round" stroke-linejoin="round" d="M28.408562500000002 9.076875c0.042104166666666665 2.0366666666666666 1.3796458333333332 3.6170416666666663 3.4163124999999996 3.6483749999999997a32.288999999999994 32.288999999999994 0 0 0 0.97525 0c2.0366666666666666 -0.03133333333333333 3.3742083333333333 -1.611708333333333 3.4163124999999996 -3.6483749999999997a59.985708333333335 59.985708333333335 0 0 0 0 -2.487083333333333c-0.042104166666666665 -2.0366666666666666 -1.3796458333333332 -3.6170416666666663 -3.4163124999999996 -3.6483749999999997a31.768083333333333 31.768083333333333 0 0 0 -0.97525 0c-2.0366666666666666 0.03133333333333333 -3.3742083333333333 1.611708333333333 -3.4163124999999996 3.6483749999999997a59.985708333333335 59.985708333333335 0 0 0 0 2.487083333333333Z" stroke-width="1"></path></g></svg>