<svg xmlns="http://www.w3.org/2000/svg" fill="none" viewBox="-0.5 -0.5 48 48" id="Graph-Bar-Increase--Streamline-Plump.svg"><desc>Graph Bar Increase Streamline Icon: https://streamlinehq.com</desc><g id="graph-bar-increase--up-product-performance-increase-arrow-graph-business-chart"><path id="Vector" fill="#ffffff" d="M41.494145833333334 11.087104166666666c0.6501666666666667 -3.1676041666666666 0.6433125 -5.960187499999999 0.5884791666666667 -7.275208333333333a0.88125 0.88125 0 0 0 -0.8508958333333333 -0.8518749999999999 30.991604166666665 30.991604166666665 0 0 0 -7.275208333333333 0.5884791666666667c-0.7373124999999999 0.15079166666666666 -0.9811249999999999 1.0526041666666666 -0.4504166666666667 1.5842916666666667l6.40375 6.40375c0.5326666666666667 0.5316875 1.4335 0.2868958333333333 1.5842916666666667 -0.4494375Z" stroke-width="1"></path><path id="Rectangle 59" fill="#8fbffa" d="M5.1572708333333335 44.02333333333333c-1.1044999999999998 -0.036229166666666666 -1.9505 -0.7040208333333333 -2.062125 -1.8026458333333333C3.0060416666666665 41.35902083333333 2.9375 40.07925 2.9375 38.1875s0.0705 -3.1725 0.15666666666666668 -4.0331874999999995c0.11260416666666667 -1.098625 0.9586041666666666 -1.7664166666666667 2.0631041666666667 -1.803625C5.810375 32.329145833333335 6.684770833333333 32.3125 7.833333333333333 32.3125s2.022958333333333 0.016645833333333335 2.6760625 0.03916666666666667c1.1044999999999998 0.036229166666666666 1.9505 0.7040208333333333 2.062125 1.8026458333333333 0.088125 0.8616666666666667 0.15764583333333332 2.1414375 0.15764583333333332 4.0331874999999995s-0.0705 3.1725 -0.15666666666666668 4.0331874999999995c-0.11260416666666667 1.098625 -0.9586041666666666 1.7664166666666667 -2.0631041666666667 1.803625 -0.6540833333333333 0.021541666666666664 -1.5275 0.0381875 -2.6760625 0.0381875s-2.022958333333333 -0.016645833333333335 -2.6760625 -0.03916666666666667Z" stroke-width="1"></path><path id="Rectangle 60" fill="#8fbffa" d="M36.7745625 43.99787499999999c-1.2729166666666667 -0.07833333333333334 -2.1571041666666666 -0.9967916666666666 -2.2491458333333334 -2.2687291666666667C34.40008333333333 40.00483333333333 34.27083333333333 36.88227083333334 34.27083333333333 31.333333333333332c0 -5.549916666666666 0.12925 -8.6715 0.25458333333333333 -10.3958125 0.09204166666666666 -1.2719375 0.9762291666666666 -2.191375 2.2491458333333334 -2.2687291666666667C37.391437499999995 18.630604166666668 38.177708333333335 18.604166666666664 39.166666666666664 18.604166666666664s1.7752291666666666 0.0264375 2.3921041666666665 0.064625c1.2729166666666667 0.07833333333333334 2.1571041666666666 0.9967916666666666 2.2491458333333334 2.2687291666666667 0.12533333333333332 1.7243125 0.25458333333333333 4.846875 0.25458333333333333 10.3958125 0 5.549916666666666 -0.12925 8.6715 -0.25458333333333333 10.3958125 -0.09204166666666666 1.2719375 -0.9762291666666666 2.191375 -2.2491458333333334 2.2687291666666667 -0.616875 0.0381875 -1.4021666666666666 0.064625 -2.3921041666666665 0.064625 -0.9889583333333333 0 -1.7752291666666666 -0.0264375 -2.3921041666666665 -0.064625Z" stroke-width="1"></path><path id="Rectangle 61" fill="#8fbffa" d="M21.052083333333332 44.015499999999996c-1.2376666666666667 -0.05385416666666667 -2.1414375 -0.88125 -2.245229166666667 -2.115C18.700125 40.62954166666667 18.604166666666664 38.56545833333333 18.604166666666664 35.25c0 -3.3154583333333334 0.09595833333333334 -5.379541666666666 0.2026875 -6.650499999999999 0.10379166666666666 -1.23375 1.0075625 -2.0611458333333332 2.2442499999999996 -2.115A56.14541666666667 56.14541666666667 0 0 1 23.5 26.4375c1.0202916666666666 0 1.8232083333333333 0.019583333333333335 2.4479166666666665 0.047 1.2376666666666667 0.05385416666666667 2.1414375 0.88125 2.245229166666667 2.115 0.10672916666666667 1.2709583333333334 0.2026875 3.3350416666666667 0.2026875 6.650499999999999 0 3.3154583333333334 -0.09595833333333334 5.379541666666666 -0.2026875 6.650499999999999 -0.10379166666666666 1.23375 -1.0075625 2.0611458333333332 -2.2442499999999996 2.115 -0.6256875 0.027416666666666666 -1.4286041666666667 0.047 -2.4488958333333333 0.047a56.253125 56.253125 0 0 1 -2.4479166666666665 -0.047Z" stroke-width="1"></path><path id="Vector 79" stroke="#2859c5" stroke-linecap="round" stroke-linejoin="round" d="M4.895833333333333 25.458333333333332c5.737916666666667 -6.814020833333332 10.950999999999999 -10.737541666666665 13.329395833333333 -12.34925 0.7774583333333334 -0.5277708333333333 1.8026458333333333 -0.35543749999999996 2.3930833333333332 0.3750208333333333a92.94445833333333 92.94445833333333 0 0 1 3.2410416666666664 4.2858125c0.7911666666666667 1.1084166666666666 2.460645833333333 1.1436666666666666 3.3369999999999997 0.10183333333333333C31.2461875 13.062083333333332 36.71972916666666 8.322916666666666 36.71972916666666 8.322916666666666" stroke-width="1"></path><path id="Vector_2" stroke="#2859c5" stroke-linecap="round" stroke-linejoin="round" d="M41.49316666666666 11.087104166666666c0.6501666666666667 -3.1676041666666666 0.6433125 -5.960187499999999 0.5884791666666667 -7.275208333333333a0.88125 0.88125 0 0 0 -0.8508958333333333 -0.8518749999999999 30.993562499999996 30.993562499999996 0 0 0 -7.275208333333333 0.5884791666666667c-0.7373124999999999 0.15079166666666666 -0.9811249999999999 1.0526041666666666 -0.4504166666666667 1.5842916666666667l6.40375 6.40375c0.5326666666666667 0.5316875 1.4335 0.2868958333333333 1.5842916666666667 -0.4494375Z" stroke-width="1"></path><path id="Rectangle 56" stroke="#2859c5" stroke-linecap="round" stroke-linejoin="round" d="M5.1572708333333335 44.02333333333333c-1.1044999999999998 -0.036229166666666666 -1.9505 -0.7040208333333333 -2.062125 -1.8026458333333333C3.0060416666666665 41.35902083333333 2.9375 40.07925 2.9375 38.1875s0.0705 -3.1725 0.15666666666666668 -4.0331874999999995c0.11260416666666667 -1.098625 0.9586041666666666 -1.7664166666666667 2.0631041666666667 -1.803625C5.810375 32.329145833333335 6.684770833333333 32.3125 7.833333333333333 32.3125s2.022958333333333 0.016645833333333335 2.6760625 0.03916666666666667c1.1044999999999998 0.036229166666666666 1.9505 0.7040208333333333 2.062125 1.8026458333333333 0.088125 0.8616666666666667 0.15764583333333332 2.1414375 0.15764583333333332 4.0331874999999995s-0.0705 3.1725 -0.15666666666666668 4.0331874999999995c-0.11260416666666667 1.098625 -0.9586041666666666 1.7664166666666667 -2.0631041666666667 1.803625 -0.6540833333333333 0.021541666666666664 -1.5275 0.0381875 -2.6760625 0.0381875s-2.022958333333333 -0.016645833333333335 -2.6760625 -0.03916666666666667Z" stroke-width="1"></path><path id="Rectangle 57" stroke="#2859c5" stroke-linecap="round" stroke-linejoin="round" d="M36.7745625 43.99787499999999c-1.2729166666666667 -0.07833333333333334 -2.1571041666666666 -0.9967916666666666 -2.2491458333333334 -2.2687291666666667C34.40008333333333 40.00483333333333 34.27083333333333 36.88227083333334 34.27083333333333 31.333333333333332c0 -5.549916666666666 0.12925 -8.6715 0.25458333333333333 -10.3958125 0.09204166666666666 -1.2719375 0.9762291666666666 -2.191375 2.2491458333333334 -2.2687291666666667C37.391437499999995 18.630604166666668 38.177708333333335 18.604166666666664 39.166666666666664 18.604166666666664s1.7752291666666666 0.0264375 2.3921041666666665 0.064625c1.2729166666666667 0.07833333333333334 2.1571041666666666 0.9967916666666666 2.2491458333333334 2.2687291666666667 0.12533333333333332 1.7243125 0.25458333333333333 4.846875 0.25458333333333333 10.3958125 0 5.549916666666666 -0.12925 8.6715 -0.25458333333333333 10.3958125 -0.09204166666666666 1.2719375 -0.9762291666666666 2.191375 -2.2491458333333334 2.2687291666666667 -0.616875 0.0381875 -1.4021666666666666 0.064625 -2.3921041666666665 0.064625 -0.9889583333333333 0 -1.7752291666666666 -0.0264375 -2.3921041666666665 -0.064625Z" stroke-width="1"></path><path id="Rectangle 58" stroke="#2859c5" stroke-linecap="round" stroke-linejoin="round" d="M21.052083333333332 44.015499999999996c-1.2376666666666667 -0.05385416666666667 -2.1414375 -0.88125 -2.245229166666667 -2.115C18.700125 40.62954166666667 18.604166666666664 38.56545833333333 18.604166666666664 35.25c0 -3.3154583333333334 0.09595833333333334 -5.379541666666666 0.2026875 -6.650499999999999 0.10379166666666666 -1.23375 1.0075625 -2.0611458333333332 2.2442499999999996 -2.115A56.14541666666667 56.14541666666667 0 0 1 23.5 26.4375c1.0202916666666666 0 1.8232083333333333 0.019583333333333335 2.4479166666666665 0.047 1.2376666666666667 0.05385416666666667 2.1414375 0.88125 2.245229166666667 2.115 0.10672916666666667 1.2709583333333334 0.2026875 3.3350416666666667 0.2026875 6.650499999999999 0 3.3154583333333334 -0.09595833333333334 5.379541666666666 -0.2026875 6.650499999999999 -0.10379166666666666 1.23375 -1.0075625 2.0611458333333332 -2.2442499999999996 2.115 -0.6256875 0.027416666666666666 -1.4286041666666667 0.047 -2.4488958333333333 0.047a56.253125 56.253125 0 0 1 -2.4479166666666665 -0.047Z" stroke-width="1"></path></g></svg>