<svg xmlns="http://www.w3.org/2000/svg" fill="none" viewBox="-0.5 -0.5 48 48" id="Industry-Innovation-And-Infrastructure--Streamline-Plump.svg"><desc>Industry Innovation And Infrastructure Streamline Icon: https://streamlinehq.com</desc><g id="industry-innovation-and-infrastructure"><path id="Rectangle 1098" fill="#8fbffa" d="M12.991583333333333 19.503041666666665C13.115839583333333 20.69948541666667 13.881352083333333 21.69451458333333 14.974297916666666 22.196827083333332C17.243418749999996 23.2397375 21.227158333333332 24.907160416666667 23.5 24.907160416666667C25.772841666666668 24.907160416666667 29.75658125 23.2397375 32.02570208333333 22.196827083333332C33.11864791666667 21.69451458333333 33.88416041666667 20.69948541666667 34.00841666666666 19.503041666666665C34.13051874999999 18.328629166666666 34.24733333333333 16.57366875 34.24733333333333 14.159827083333333C34.24733333333333 11.745985416666667 34.13051874999999 9.991122916666665 34.00841666666666 8.8166125C33.88416041666667 7.620266666666667 33.11864791666667 6.625139583333333 32.02570208333333 6.122827083333333C29.75658125 5.080014583333334 25.772841666666668 3.41249375 23.5 3.41249375C21.227158333333332 3.41249375 17.243418749999996 5.080014583333334 14.974297916666666 6.122827083333333C13.881352083333333 6.625139583333333 13.115839583333333 7.620266666666667 12.991583333333333 8.8166125C12.86948125 9.991122916666665 12.752666666666665 11.745985416666667 12.752666666666665 14.159827083333333S12.86948125 18.328629166666666 12.991583333333333 19.503041666666665Z" stroke-width="1"></path><path id="Vector" fill="#ffffff" d="M23.500391666666665 3.1566375C26.368566666666666 3.1566375 31.960979166666664 6.107747916666667 33.39457708333333 6.890885416666666C33.60637083333333 7.006622916666667 33.73571875 7.24505 33.73552291666667 7.507270833333333C33.73532708333333 7.7690020833333335 33.605979166666664 8.006645833333332 33.39457708333333 8.122187499999999C31.962154166666668 8.904639583333331 26.368175 11.856827083333332 23.499608333333335 11.856827083333332C20.63153125 11.856827083333332 15.039020833333332 8.905716666666667 13.605422916666665 8.122579166666666C13.393629166666665 8.006841666666665 13.26428125 7.768512499999999 13.264477083333333 7.5061937499999996C13.264672916666667 7.244560416666666 13.394020833333332 7.00681875 13.605422916666665 6.891375C15.037845833333332 6.108825 20.631825 3.1566375 23.500391666666665 3.1566375Z" stroke-width="1"></path><path id="Rectangle 1099" fill="#8fbffa" d="M2.2441520833333333 38.18289791666667C2.36850625 39.37934166666666 3.1340187499999996 40.37446875 4.226964583333333 40.87668333333333C6.496085416666666 41.919593750000004 10.479825 43.58711458333333 12.752666666666665 43.58711458333333C15.025508333333333 43.58711458333333 19.009247916666666 41.919593750000004 21.278368750000002 40.87668333333333C22.371314583333334 40.37446875 23.136827083333333 39.37934166666666 23.261083333333332 38.18289791666667C23.383185416666667 37.008485416666666 23.5 35.253622916666664 23.5 32.839781249999994C23.5 30.425841666666667 23.383185416666667 28.670979166666665 23.261083333333332 27.496566666666666C23.136827083333333 26.300122916666666 22.371314583333334 25.304995833333333 21.278368750000002 24.80278125C19.009247916666666 23.75987083333333 15.025508333333333 22.092447916666664 12.752666666666665 22.092447916666664C10.479825 22.092447916666664 6.496085416666666 23.75987083333333 4.226964583333333 24.80278125C3.1340187499999996 25.304995833333333 2.36850625 26.300122916666666 2.2441520833333333 27.496566666666666C2.1221479166666666 28.670979166666665 2.005333333333333 30.425841666666667 2.005333333333333 32.839781249999994C2.005333333333333 35.253622916666664 2.1221479166666666 37.008485416666666 2.2441520833333333 38.18289791666667Z" stroke-width="1"></path><path id="Vector_2" fill="#ffffff" d="M12.753058333333334 22.092447916666664C15.621233333333333 22.092447916666664 21.21364583333333 25.043558333333333 22.64724375 25.826695833333332C22.8590375 25.94243333333333 22.988385416666667 26.1807625 22.988189583333334 26.442983333333334C22.987993749999998 26.70471458333333 22.85864583333333 26.94245625 22.64724375 27.0579C21.21482083333333 27.84045 15.620841666666667 30.7926375 12.752275 30.7926375C9.884197916666666 30.7926375 4.2916875 27.841527083333332 2.8579916666666665 27.058291666666666C2.6462958333333333 26.942652083333332 2.51685 26.704225 2.51714375 26.442004166666667C2.5173395833333334 26.180272916666667 2.6466874999999996 25.942629166666663 2.858089583333333 25.827185416666666C4.2905125 25.0445375 9.884491666666666 22.092447916666664 12.753058333333334 22.092447916666664Z" stroke-width="1"></path><path id="Rectangle 1100" fill="#8fbffa" d="M23.738916666666665 38.18289791666667C23.863172916666663 39.37934166666666 24.628685416666666 40.37446875 25.721631249999998 40.87668333333333C27.990752083333334 41.919593750000004 31.974491666666665 43.58711458333333 34.24733333333333 43.58711458333333C36.520174999999995 43.58711458333333 40.50391458333333 41.919593750000004 42.773035416666666 40.87668333333333C43.86598125 40.37446875 44.63149375 39.37934166666666 44.75575 38.18289791666667C44.87785208333334 37.008485416666666 44.99466666666666 35.253622916666664 44.99466666666666 32.839781249999994C44.99466666666666 30.425841666666667 44.87785208333334 28.670979166666665 44.75575 27.496566666666666C44.63149375 26.300122916666666 43.86598125 25.304995833333333 42.773035416666666 24.80278125C40.50391458333333 23.75987083333333 36.520174999999995 22.092447916666664 34.24733333333333 22.092447916666664C31.974491666666665 22.092447916666664 27.990752083333334 23.75987083333333 25.721631249999998 24.80278125C24.628685416666666 25.304995833333333 23.863172916666663 26.300122916666666 23.738916666666665 27.496566666666666C23.61681458333333 28.670979166666665 23.5 30.425841666666667 23.5 32.839781249999994C23.5 35.253622916666664 23.61681458333333 37.008485416666666 23.738916666666665 38.18289791666667Z" stroke-width="1"></path><path id="Vector_3" fill="#ffffff" d="M34.247724999999996 22.092447916666664C37.115899999999996 22.092447916666664 42.7083125 25.043558333333333 44.14191041666666 25.826695833333332C44.35370416666667 25.94243333333333 44.48305208333333 26.1807625 44.48285625 26.442983333333334C44.48266041666666 26.70471458333333 44.353312499999994 26.94245625 44.14191041666666 27.0579C42.7094875 27.84045 37.11550833333333 30.7926375 34.246941666666665 30.7926375C31.378766666666664 30.7926375 25.786354166666666 27.841527083333332 24.35275625 27.058291666666666C24.140962499999997 26.942652083333332 24.011614583333333 26.704225 24.011810416666666 26.442004166666667C24.01200625 26.180272916666667 24.141354166666666 25.942629166666663 24.35275625 25.827185416666666C25.785179166666666 25.0445375 31.37915833333333 22.092447916666664 34.247724999999996 22.092447916666664Z" stroke-width="1"></path><path id="Rectangle 1096" stroke="#2859c5" stroke-linejoin="round" d="M12.991583333333333 19.503041666666665C13.115839583333333 20.69948541666667 13.881352083333333 21.69451458333333 14.974297916666666 22.196827083333332C17.243418749999996 23.2397375 21.227158333333332 24.907160416666667 23.5 24.907160416666667C25.772841666666668 24.907160416666667 29.75658125 23.2397375 32.02570208333333 22.196827083333332C33.11864791666667 21.69451458333333 33.88416041666667 20.69948541666667 34.00841666666666 19.503041666666665C34.13051874999999 18.328629166666666 34.24733333333333 16.57366875 34.24733333333333 14.159827083333333C34.24733333333333 11.745985416666667 34.13051874999999 9.991122916666665 34.00841666666666 8.8166125C33.88416041666667 7.620266666666667 33.11864791666667 6.625139583333333 32.02570208333333 6.122827083333333C29.75658125 5.080014583333334 25.772841666666668 3.41249375 23.5 3.41249375C21.227158333333332 3.41249375 17.243418749999996 5.080014583333334 14.974297916666666 6.122827083333333C13.881352083333333 6.625139583333333 13.115839583333333 7.620266666666667 12.991583333333333 8.8166125C12.86948125 9.991122916666665 12.752666666666665 11.745985416666667 12.752666666666665 14.159827083333333S12.86948125 18.328629166666666 12.991583333333333 19.503041666666665Z" stroke-width="1"></path><path id="Rectangle 1097" stroke="#2859c5" stroke-linejoin="round" d="M12.752666666666665 7.711818749999999S21.32997083333333 12.010752083333331 23.5 12.010752083333331C25.670029166666666 12.010752083333331 34.24733333333333 7.711818749999999 34.24733333333333 7.711818749999999" stroke-width="1"></path><path id="Vector 1655" stroke="#2859c5" stroke-linecap="round" stroke-linejoin="round" d="M23.5 12.010752083333331V24.907552083333332" stroke-width="1"></path><path id="Rectangle 1096_2" stroke="#2859c5" stroke-linejoin="round" d="M2.2441520833333333 38.18289791666667C2.36850625 39.37934166666666 3.1340187499999996 40.37446875 4.226964583333333 40.87668333333333C6.496085416666666 41.919593750000004 10.479825 43.58711458333333 12.752666666666665 43.58711458333333C15.025508333333333 43.58711458333333 19.009247916666666 41.919593750000004 21.278368750000002 40.87668333333333C22.371314583333334 40.37446875 23.136827083333333 39.37934166666666 23.261083333333332 38.18289791666667C23.383185416666667 37.008485416666666 23.5 35.253622916666664 23.5 32.839781249999994C23.5 30.425841666666667 23.383185416666667 28.670979166666665 23.261083333333332 27.496566666666666C23.136827083333333 26.300122916666666 22.371314583333334 25.304995833333333 21.278368750000002 24.80278125C19.009247916666666 23.75987083333333 15.025508333333333 22.092447916666664 12.752666666666665 22.092447916666664C10.479825 22.092447916666664 6.496085416666666 23.75987083333333 4.226964583333333 24.80278125C3.1340187499999996 25.304995833333333 2.36850625 26.300122916666666 2.2441520833333333 27.496566666666666C2.1221479166666666 28.670979166666665 2.005333333333333 30.425841666666667 2.005333333333333 32.839781249999994C2.005333333333333 35.253622916666664 2.1221479166666666 37.008485416666666 2.2441520833333333 38.18289791666667Z" stroke-width="1"></path><path id="Rectangle 1097_2" stroke="#2859c5" stroke-linejoin="round" d="M2.005333333333333 26.391772916666664S10.5826375 30.690706249999998 12.752666666666665 30.690706249999998C14.922695833333332 30.690706249999998 23.5 26.391772916666664 23.5 26.391772916666664" stroke-width="1"></path><path id="Vector 1655_2" stroke="#2859c5" stroke-linecap="round" stroke-linejoin="round" d="M12.752666666666665 30.690706249999998V43.58750625" stroke-width="1"></path><path id="Rectangle 1096_3" stroke="#2859c5" stroke-linejoin="round" d="M23.738916666666665 38.18289791666667C23.863172916666663 39.37934166666666 24.628685416666666 40.37446875 25.721631249999998 40.87668333333333C27.990752083333334 41.919593750000004 31.974491666666665 43.58711458333333 34.24733333333333 43.58711458333333C36.520174999999995 43.58711458333333 40.50391458333333 41.919593750000004 42.773035416666666 40.87668333333333C43.86598125 40.37446875 44.63149375 39.37934166666666 44.75575 38.18289791666667C44.87785208333334 37.008485416666666 44.99466666666666 35.253622916666664 44.99466666666666 32.839781249999994C44.99466666666666 30.425841666666667 44.87785208333334 28.670979166666665 44.75575 27.496566666666666C44.63149375 26.300122916666666 43.86598125 25.304995833333333 42.773035416666666 24.80278125C40.50391458333333 23.75987083333333 36.520174999999995 22.092447916666664 34.24733333333333 22.092447916666664C31.974491666666665 22.092447916666664 27.990752083333334 23.75987083333333 25.721631249999998 24.80278125C24.628685416666666 25.304995833333333 23.863172916666663 26.300122916666666 23.738916666666665 27.496566666666666C23.61681458333333 28.670979166666665 23.5 30.425841666666667 23.5 32.839781249999994C23.5 35.253622916666664 23.61681458333333 37.008485416666666 23.738916666666665 38.18289791666667Z" stroke-width="1"></path><path id="Rectangle 1097_3" stroke="#2859c5" stroke-linejoin="round" d="M23.5 26.391772916666664S32.077304166666664 30.690706249999998 34.24733333333333 30.690706249999998C36.417362499999996 30.690706249999998 44.99466666666666 26.391772916666664 44.99466666666666 26.391772916666664" stroke-width="1"></path><path id="Vector 1655_3" stroke="#2859c5" stroke-linecap="round" stroke-linejoin="round" d="M34.24733333333333 30.690706249999998V43.58750625" stroke-width="1"></path></g></svg>