<svg xmlns="http://www.w3.org/2000/svg" fill="none" viewBox="-0.5 -0.5 16.67 16.67" id="Livejournal-Logo--Streamline-Logos.svg" height="16.67" width="16.67"><desc>Livejournal Logo Streamline Icon: https://streamlinehq.com</desc><path fill="#222831" fill-rule="evenodd" d="M2.149401666666667 5.740443333333334A6.6721554166666674 6.6721554166666674 0 0 0 1.6322916666666671 8.324687500000001C1.6322916666666671 12.020195833333336 4.629179166666668 15.017083333333337 8.324687500000001 15.017083333333337S15.017083333333337 12.020195833333336 15.017083333333337 8.324687500000001 12.020195833333336 1.6322916666666671 8.324687500000001 1.6322916666666671c-0.9160420833333336 0 -1.7889916666666672 0.18412250000000002 -2.5842441666666676 0.5171100000000002L11.099583333333335 7.508541666666669l0.4178666666666668 1.9496091666666673L11.099583333333335 7.508541666666669l-0.024810833333333338 -0.025463750000000007c-0.6901329166666668 0.38195625000000005 -1.673425416666667 1.0087562500000002 -2.1134912500000005 1.4488220833333336 -0.44594208333333346 0.4452891666666668 -1.073395 1.4710212500000004 -1.4507808333333336 2.1676833333333336l-0.0019587500000000004 0 -5.359140000000001 -5.359140000000001a6.715900833333334 6.715900833333334 0 0 1 3.5910416666666674 -3.5910416666666674L4.243958333333334 0.6529166666666668s-1.3058333333333336 0.3264583333333334 -2.2852083333333337 1.3058333333333336 -1.3058333333333336 2.2852083333333337 -1.3058333333333336 2.2852083333333337l1.4964850000000003 1.4964850000000003Zm7.283285416666668 5.771783333333334c0.1436416666666667 -0.28075416666666675 0.4211312500000001 -0.7848058333333334 0.8579325000000002 -1.2216070833333337 0.4296191666666668 -0.4296191666666668 0.9388941666666668 -0.6920916666666669 1.226830416666667 -0.8324687500000001l0.5615083333333335 2.6208075000000006 -2.6462712500000007 -0.5673845833333334Z" clip-rule="evenodd" stroke-width="1"></path></svg>