<svg xmlns="http://www.w3.org/2000/svg" fill="none" viewBox="0 0 48 48" id="Open-Book--Streamline-Plump.svg"><desc>Open Book Streamline Icon: https://streamlinehq.com</desc><g id="open-book--content-books-book-open"><path id="Union" fill="#8fbffa" d="M41.482 5.563a4.21 4.21 0 0 1 4.367 3.704c0.294 2.42 0.651 6.537 0.651 12.248 0 5.712 -0.358 9.83 -0.651 12.25 -0.271 2.234 -2.173 3.714 -4.25 3.796 -6.802 0.266 -11.085 1.703 -15.933 4.261a3.568 3.568 0 0 1 -3.332 0c-4.848 -2.558 -9.131 -3.995 -15.933 -4.261 -2.077 -0.082 -3.979 -1.562 -4.25 -3.797 -0.294 -2.42 -0.651 -6.537 -0.651 -12.249 0 -5.71 0.357 -9.829 0.651 -12.248a4.21 4.21 0 0 1 4.367 -3.704c7.3 0.286 12.018 1.863 17.216 4.606a0.568 0.568 0 0 0 0.532 0c5.198 -2.743 9.916 -4.32 17.216 -4.606Z" stroke-width="1"></path><path id="Subtract" fill="#2859c5" fill-rule="evenodd" d="M18.148 19.133a2 2 0 0 1 -2.769 0.523l-0.002 -0.001a5.887 5.887 0 0 0 -0.35 -0.202c-0.28 -0.148 -0.719 -0.36 -1.306 -0.575C12.547 18.448 10.78 18 8.5 18a2 2 0 1 1 0 -4c2.811 0 5.044 0.553 6.598 1.122 0.776 0.285 1.382 0.573 1.808 0.8a9.82 9.82 0 0 1 0.697 0.41l0.017 0.011 0.007 0.005 0.003 0.002 0.002 0.001 0.001 0a2 2 0 0 1 0.515 2.782ZM15.38 30.656a2 2 0 0 0 2.254 -3.304l-0.001 -0.001 -0.002 -0.001 -0.003 -0.002 -0.007 -0.005 -0.017 -0.011a4.092 4.092 0 0 0 -0.195 -0.125 9.82 9.82 0 0 0 -0.502 -0.285 14.461 14.461 0 0 0 -1.808 -0.8C13.544 25.552 11.31 25 8.5 25a2 2 0 1 0 0 4c2.28 0 4.047 0.447 5.22 0.878 0.588 0.215 1.027 0.427 1.306 0.575a5.887 5.887 0 0 1 0.35 0.202l0.003 0.001Z" clip-rule="evenodd" stroke-width="1"></path><path id="Subtract_2" fill="#2859c5" fill-rule="evenodd" d="M29.852 19.133a2 2 0 0 0 2.769 0.523l0.002 -0.001 0.055 -0.034c0.057 -0.035 0.156 -0.094 0.296 -0.168 0.279 -0.148 0.718 -0.36 1.305 -0.575 1.174 -0.43 2.941 -0.878 5.22 -0.878a2 2 0 1 0 0 -4c-2.81 0 -5.043 0.553 -6.597 1.122 -0.776 0.285 -1.382 0.573 -1.808 0.8a9.81 9.81 0 0 0 -0.697 0.41l-0.017 0.011 -0.007 0.005 -0.003 0.002 -0.002 0.001 -0.001 0a2 2 0 0 0 -0.515 2.782Zm2.769 11.523a2 2 0 0 1 -2.254 -3.304l0.001 -0.001 0.002 -0.001 0.003 -0.002 0.007 -0.005 0.017 -0.011a3.981 3.981 0 0 1 0.195 -0.125 9.81 9.81 0 0 1 0.502 -0.285 14.461 14.461 0 0 1 1.808 -0.8C34.456 25.552 36.69 25 39.5 25a2 2 0 1 1 0 4c-2.28 0 -4.047 0.447 -5.22 0.878 -0.588 0.215 -1.027 0.427 -1.306 0.575a5.871 5.871 0 0 0 -0.35 0.202l-0.003 0.001Z" clip-rule="evenodd" stroke-width="1"></path><path id="Intersect" fill="#2859c5" d="M22.5 41.905V9.536c0.41 0.204 0.82 0.415 1.234 0.633a0.57 0.57 0 0 0 0.532 0c0.414 -0.218 0.825 -0.43 1.234 -0.633v32.369c-0.95 0.44 -2.05 0.44 -3 0Z" stroke-width="1"></path></g></svg>