<svg xmlns="http://www.w3.org/2000/svg" fill="none" viewBox="-0.5 -0.5 48 48" id="Task-List-Edit--Streamline-Plump.svg"><desc>Task List Edit Streamline Icon: https://streamlinehq.com</desc><g id="task-list-edit--task-list-edit-work"><path id="Subtract" fill="#8fbffa" d="M32.90391666666667 8.121208333333334c-3.858895833333333 -3.7834999999999996 -6.531041666666666 -4.848833333333333 -7.363333333333332 -5.109291666666667A158.46147916666666 158.46147916666666 0 0 0 20.5625 2.9375c-6.1335 0 -10.345875 0.31333333333333335 -12.972 0.6139375 -2.1551458333333335 0.24675 -3.7697916666666664 1.8633541666666666 -4.006749999999999 4.019479166666667C3.2704166666666663 10.400708333333332 2.9375 15.150645833333334 2.9375 22.520833333333332c0 7.3701875 0.33389583333333334 12.120125 0.64625 14.949916666666667 0.23695833333333333 2.156125 1.8516041666666667 3.7727291666666667 4.006749999999999 4.019479166666667 2.118916666666667 0.24185416666666665 5.270854166666666 0.4935 9.6320625 0.581625 -0.14687499999999998 -2.542895833333333 -0.08518749999999999 -4.360229166666667 0.0146875 -5.549916666666666 0.16547916666666668 -1.9779166666666665 1.110375 -3.58375 2.2344583333333334 -4.706854166666667l12.082916666666666 -12.082916666666666c1.5108541666666666 -1.5108541666666666 3.944083333333333 -2.8151041666666665 6.564333333333333 -2.733833333333333 -0.016645833333333335 -0.6315625 -0.03525 -1.2357083333333332 -0.05679166666666667 -1.8143958333333332 -0.3436875 -0.9595833333333332 -1.5167291666666665 -3.4926875 -5.15825 -7.062729166666666Z" stroke-width="1"></path><path id="Intersect" fill="#ffffff" d="M25.542541666666665 3.0128958333333333c0.8342499999999999 0.2624166666666667 3.5054166666666666 1.3297083333333333 7.359416666666666 5.108312499999999 3.6425 3.5700416666666666 4.8145625 6.104125 5.15825 7.0637083333333335l0.015666666666666666 0.440625c-2.0435208333333335 0.3045208333333333 -5.7193125 0.0705 -8.508958333333332 -0.18702083333333333a4.566833333333333 4.566833333333333 0 0 1 -4.140895833333333 -4.123270833333334c-0.2624166666666667 -2.7436249999999998 -0.49545833333333333 -6.331291666666667 -0.17625 -8.311166666666665l0.2927708333333333 0.009791666666666667Z" stroke-width="1"></path><path id="Rectangle 63" fill="#ffffff" d="M42.755312499999995 30.933833333333332c1.4237083333333331 -1.4227291666666666 1.9681249999999997 -3.5024791666666664 0.7774583333333334 -5.1259375a17.402729166666667 17.402729166666667 0 0 0 -1.733125 -2.0033749999999997c-0.7245833333333332 -0.7245833333333332 -1.4002083333333333 -1.2905416666666667 -2.004354166666667 -1.733125 -1.6224791666666667 -1.1906666666666665 -3.7022291666666667 -0.64625 -5.1259375 0.7764791666666667l-12.082916666666666 12.082916666666666c-0.5316875 0.5326666666666667 -0.8959375 1.2073125 -0.9586041666666666 1.9583333333333333 -0.08518749999999999 1.0193124999999998 -0.14785416666666665 2.7514583333333333 0.016645833333333335 5.314916666666666a1.88 1.88 0 0 0 1.7556458333333331 1.7556458333333331c2.5624791666666664 0.1645 4.295604166666666 0.10183333333333333 5.314916666666666 0.015666666666666666 0.7500416666666666 -0.06266666666666666 1.4256666666666666 -0.42593749999999997 1.9583333333333333 -0.9595833333333332l12.082916666666666 -12.0819375Z" stroke-width="1"></path><path id="Intersect_2" fill="#8fbffa" d="M40.14583333333333 33.544291666666666c-0.0029375 -0.013708333333333333 -0.47293749999999996 -2.0728958333333334 -3.243 -4.842958333333333 -2.7788749999999998 -2.7788749999999998 -4.842958333333333 -3.242020833333333 -4.842958333333333 -3.242020833333333l2.6094791666666666 -2.6104583333333333c1.4237083333333331 -1.4227291666666666 3.503458333333333 -1.9681249999999997 5.126916666666666 -0.7764791666666667a17.403708333333334 17.403708333333334 0 0 1 2.0023958333333334 1.733125c0.7245833333333332 0.7245833333333332 1.2915208333333332 1.4002083333333333 1.733125 2.0033749999999997 1.1916458333333333 1.6234583333333332 0.64625 3.7032083333333334 -0.7764791666666667 5.1259375L40.14583333333333 33.544291666666666Z" stroke-width="1"></path><path id="Subtract_2" stroke="#2859c5" stroke-linecap="round" stroke-linejoin="round" d="M38.06216666666666 15.183937499999999c-0.3436875 -0.9595833333333332 -1.5167291666666665 -3.4926875 -5.15825 -7.062729166666666 -3.858895833333333 -3.7834999999999996 -6.531041666666666 -4.848833333333333 -7.363333333333332 -5.109291666666667A158.46147916666666 158.46147916666666 0 0 0 20.5625 2.9375c-6.1335 0 -10.345875 0.31333333333333335 -12.972 0.6139375 -2.1551458333333335 0.24675 -3.7697916666666664 1.8633541666666666 -4.006749999999999 4.019479166666667C3.2704166666666663 10.400708333333332 2.9375 15.150645833333334 2.9375 22.520833333333332c0 7.3701875 0.33389583333333334 12.120125 0.64625 14.949916666666667 0.23695833333333333 2.156125 1.8516041666666667 3.7727291666666667 4.006749999999999 4.019479166666667 1.858458333333333 0.21247916666666666 4.511020833333333 0.43083333333333335 8.076166666666666 0.5414791666666667" stroke-width="1"></path><path id="Intersect_3" stroke="#2859c5" stroke-linecap="round" stroke-linejoin="round" d="M38.075875 15.625541666666667c-2.0435208333333335 0.3045208333333333 -5.7193125 0.0705 -8.508958333333332 -0.18702083333333333a4.566833333333333 4.566833333333333 0 0 1 -4.140895833333333 -4.123270833333334c-0.2624166666666667 -2.7436249999999998 -0.49545833333333333 -6.331291666666667 -0.17625 -8.311166666666665" stroke-width="1"></path><path id="Rectangle 64" stroke="#2859c5" stroke-linecap="round" stroke-linejoin="round" d="M40.14583333333333 33.544291666666666s-0.4631458333333333 -2.0640833333333335 -3.243 -4.842958333333333C34.123958333333334 25.921479166666664 32.059875 25.458333333333332 32.059875 25.458333333333332" stroke-width="1"></path><path id="Vector 1455" stroke="#2859c5" stroke-linecap="round" stroke-linejoin="round" d="m9.791666666666666 12.729166666666666 3.9166666666666665 3.9166666666666665 4.895833333333333 -6.854166666666666" stroke-width="1"></path><path id="Vector 1456" stroke="#2859c5" stroke-linecap="round" stroke-linejoin="round" d="m9.791666666666666 23.5 3.9166666666666665 3.9166666666666665 4.895833333333333 -6.854166666666666" stroke-width="1"></path><path id="Rectangle 65" stroke="#2859c5" stroke-linecap="round" stroke-linejoin="round" d="M42.755312499999995 30.933833333333332c1.4237083333333331 -1.4227291666666666 1.9681249999999997 -3.5024791666666664 0.7774583333333334 -5.1259375a17.402729166666667 17.402729166666667 0 0 0 -1.733125 -2.0033749999999997c-0.7245833333333332 -0.7245833333333332 -1.4002083333333333 -1.2905416666666667 -2.004354166666667 -1.733125 -1.6224791666666667 -1.1906666666666665 -3.7022291666666667 -0.64625 -5.1259375 0.7764791666666667l-12.082916666666666 12.082916666666666c-0.5316875 0.5326666666666667 -0.8959375 1.2073125 -0.9586041666666666 1.9583333333333333 -0.08518749999999999 1.0193124999999998 -0.14785416666666665 2.7514583333333333 0.016645833333333335 5.314916666666666a1.88 1.88 0 0 0 1.7556458333333331 1.7556458333333331c2.5624791666666664 0.1645 4.295604166666666 0.10183333333333333 5.314916666666666 0.015666666666666666 0.7500416666666666 -0.06266666666666666 1.4256666666666666 -0.42593749999999997 1.9583333333333333 -0.9595833333333332l12.082916666666666 -12.0819375Z" stroke-width="1"></path></g></svg>