<svg xmlns="http://www.w3.org/2000/svg" fill="none" viewBox="-0.5 -0.5 48 48" id="User-Face-Male--Streamline-Plump.svg"><desc>User Face Male Streamline Icon: https://streamlinehq.com</desc><g id="user-face-male--user-face-male-man"><path id="Ellipse 25" fill="#ffffff" d="M2.9375 23.5c0 11.356375 9.206124999999998 20.5625 20.5625 20.5625s20.5625 -9.206124999999998 20.5625 -20.5625S34.856375 2.9375 23.5 2.9375 2.9375 12.143624999999998 2.9375 23.5Z" stroke-width="1"></path><path id="Vector" fill="#8fbffa" d="M3.0299920833333336 21.54039375C13.68375625 21.4936875 22.424385416666663 13.34476875 23.408154166666666 2.9375c-10.653725 0.046745416666666664 -19.39436395833333 8.195625 -20.378162083333333 18.60289375Z" stroke-width="1"></path><path id="Vector_2" fill="#8fbffa" d="M43.96996875 21.54039375C33.31624375 21.4936875 24.575614583333333 13.34476875 23.591845833333334 2.9375c10.653725 0.046745416666666664 19.394354166666666 8.195625 20.378122916666666 18.60289375Z" stroke-width="1"></path><path id="Ellipse 18" stroke="#2859c5" stroke-linecap="round" stroke-linejoin="round" d="M2.9375 23.5c0 11.356375 9.206124999999998 20.5625 20.5625 20.5625s20.5625 -9.206124999999998 20.5625 -20.5625S34.856375 2.9375 23.5 2.9375 2.9375 12.143624999999998 2.9375 23.5Z" stroke-width="1"></path><path id="Intersect" stroke="#2859c5" stroke-linecap="round" stroke-linejoin="round" d="M23.40795833333333 2.9375c-0.9837687499999999 10.40726875 -9.724397916666666 18.5561875 -20.378181666666666 18.60289375" stroke-width="1"></path><path id="Intersect_2" stroke="#2859c5" stroke-linecap="round" stroke-linejoin="round" d="M43.9702625 21.54039375C33.316439583333334 21.4936875 24.575810416666666 13.34476875 23.592041666666667 2.9375" stroke-width="1"></path><path id="Vector 839" stroke="#2859c5" stroke-linecap="round" stroke-linejoin="round" d="M15.666666666666666 23.5v1.9583333333333333" stroke-width="1"></path><path id="Vector 840" stroke="#2859c5" stroke-linecap="round" stroke-linejoin="round" d="M31.333333333333332 23.5v1.9583333333333333" stroke-width="1"></path><path id="Ellipse 24" stroke="#2859c5" stroke-linecap="round" stroke-linejoin="round" d="M30.354166666666664 33.291666666666664c-2.9986979166666665 3.9166666666666665 -10.709635416666666 3.9166666666666665 -13.708333333333332 0" stroke-width="1"></path></g></svg>