<svg xmlns="http://www.w3.org/2000/svg" fill="none" viewBox="-0.5 -0.5 48 48" id="Wallet--Streamline-Plump.svg"><desc>Wallet Streamline Icon: https://streamlinehq.com</desc><g id="wallet--money-payment-finance-wallet"><path id="Rectangle 1098" fill="#8fbffa" d="M3.347770833333333 39.1128125c0.20366666666666666 2.497854166666667 2.1433958333333334 4.376874999999999 4.643208333333333 4.5501875C10.868749999999999 43.86275 15.311229166666667 44.0625 21.541666666666664 44.0625s10.672916666666667 -0.19974999999999998 13.5506875 -0.39949999999999997c2.4998125 -0.1723333333333333 4.439541666666666 -2.0523333333333333 4.643208333333333 -4.5501875C39.946083333333334 36.53270833333333 40.14583333333333 32.6914375 40.14583333333333 27.416666666666664c0 -5.274770833333332 -0.19974999999999998 -9.116041666666666 -0.4102708333333333 -11.696145833333333 -0.20366666666666666 -2.497854166666667 -2.1433958333333334 -4.376874999999999 -4.643208333333333 -4.5501875C32.21360416666666 10.970583333333334 27.772104166666665 10.770833333333332 21.541666666666664 10.770833333333332s-10.672916666666667 0.19974999999999998 -13.551666666666666 0.39949999999999997c-2.4988333333333332 0.1723333333333333 -4.4385625 2.0523333333333333 -4.642229166666666 4.5501875C3.13725 18.299645833333333 2.9375 22.141895833333333 2.9375 27.416666666666664c0 5.274770833333332 0.19974999999999998 9.116041666666666 0.4102708333333333 11.696145833333333Z" stroke-width="1"></path><path id="Subtract" fill="#ffffff" d="M7.010833333333333 11.330916666666665c5.8603125 -3.056958333333333 13.346041666666666 -5.879895833333333 20.325541666666666 -7.598333333333333 2.0298125 -0.499375 4.1271875 0.252625 5.182729166666666 2.05625 0.7568958333333333 1.2925 1.6812291666666668 3.06675 2.657458333333333 5.387375a4.8194583333333325 4.8194583333333325 0 0 0 -0.08420833333333333 -0.005875c-2.8787499999999997 -0.19974999999999998 -7.32025 -0.39949999999999997 -13.551666666666666 -0.39949999999999997 -6.2294583333333335 0 -10.671937499999999 0.19974999999999998 -13.549708333333331 0.39949999999999997a5.267916666666666 5.267916666666666 0 0 0 -0.9791666666666666 0.16058333333333333Z" stroke-width="1"></path><path id="Rectangle 1099" fill="#ffffff" d="M28.458499999999997 30.474604166666666c0.09302083333333333 2.085625 1.7008125 3.6395625 3.785458333333333 3.7227916666666667 1.0623958333333332 0.04308333333333333 2.3832916666666666 0.07343749999999999 3.9852083333333335 0.07343749999999999 1.6019166666666664 0 2.9228124999999996 -0.030354166666666665 3.9852083333333335 -0.07343749999999999 2.085625 -0.08322916666666667 3.6924374999999996 -1.6371666666666664 3.785458333333333 -3.7227916666666667 0.03720833333333333 -0.8489375 0.06266666666666666 -1.8643333333333332 0.06266666666666666 -3.0579375 0 -1.1945833333333333 -0.025458333333333333 -2.2089999999999996 -0.06266666666666666 -3.0579375 -0.09302083333333333 -2.085625 -1.7008125 -3.6395625 -3.785458333333333 -3.7227916666666667A99.986625 99.986625 0 0 0 36.229166666666664 20.5625c-1.6019166666666664 0 -2.9228124999999996 0.030354166666666665 -3.9852083333333335 0.07343749999999999 -2.085625 0.08322916666666667 -3.6924374999999996 1.6371666666666664 -3.785458333333333 3.7227916666666667A69.28779166666666 69.28779166666666 0 0 0 28.395833333333332 27.416666666666664c0 1.1945833333333333 0.025458333333333333 2.2089999999999996 0.06266666666666666 3.0579375Z" stroke-width="1"></path><path id="Subtract_2" stroke="#2859c5" stroke-linecap="round" stroke-linejoin="round" d="M7.1175625 11.275104166666667c5.844645833333334 -3.0354166666666664 13.281416666666667 -5.835833333333333 20.219791666666666 -7.542520833333334 2.0298125 -0.499375 4.1271875 0.25164583333333335 5.182729166666666 2.0552708333333336 0.7539583333333333 1.2885833333333334 1.674375 3.055 2.647666666666667 5.363874999999999" stroke-width="1"></path><path id="Rectangle 1096" stroke="#2859c5" stroke-linecap="round" stroke-linejoin="round" d="M28.458499999999997 30.474604166666666c0.09302083333333333 2.085625 1.7008125 3.6395625 3.785458333333333 3.7227916666666667 1.0623958333333332 0.04308333333333333 2.3832916666666666 0.07343749999999999 3.9852083333333335 0.07343749999999999 1.6019166666666664 0 2.9228124999999996 -0.030354166666666665 3.9852083333333335 -0.07343749999999999 2.085625 -0.08322916666666667 3.6924374999999996 -1.6371666666666664 3.785458333333333 -3.7227916666666667 0.03720833333333333 -0.8489375 0.06266666666666666 -1.8643333333333332 0.06266666666666666 -3.0579375 0 -1.1945833333333333 -0.025458333333333333 -2.2089999999999996 -0.06266666666666666 -3.0579375 -0.09302083333333333 -2.085625 -1.7008125 -3.6395625 -3.785458333333333 -3.7227916666666667A99.986625 99.986625 0 0 0 36.229166666666664 20.5625c-1.6019166666666664 0 -2.9228124999999996 0.030354166666666665 -3.9852083333333335 0.07343749999999999 -2.085625 0.08322916666666667 -3.6924374999999996 1.6371666666666664 -3.785458333333333 3.7227916666666667A69.28779166666666 69.28779166666666 0 0 0 28.395833333333332 27.416666666666664c0 1.1945833333333333 0.025458333333333333 2.2089999999999996 0.06266666666666666 3.0579375Z" stroke-width="1"></path><path id="Subtract_3" stroke="#2859c5" stroke-linecap="round" stroke-linejoin="round" d="M40.02245833333333 20.628104166666667a116.24666666666666 116.24666666666666 0 0 0 -0.2868958333333333 -4.907583333333332c-0.20366666666666666 -2.497854166666667 -2.1433958333333334 -4.376874999999999 -4.643208333333333 -4.5501875C32.21360416666666 10.970583333333334 27.772104166666665 10.770833333333332 21.541666666666664 10.770833333333332s-10.672916666666667 0.19974999999999998 -13.551666666666666 0.39949999999999997c-2.4988333333333332 0.1723333333333333 -4.4385625 2.0523333333333333 -4.642229166666666 4.5501875C3.13725 18.299645833333333 2.9375 22.141895833333333 2.9375 27.416666666666664c0 5.274770833333332 0.19974999999999998 9.116041666666666 0.4102708333333333 11.696145833333333 0.20366666666666666 2.497854166666667 2.1433958333333334 4.376874999999999 4.643208333333333 4.5501875C10.868749999999999 43.86275 15.311229166666667 44.0625 21.541666666666664 44.0625s10.672916666666667 -0.19974999999999998 13.5506875 -0.39949999999999997c2.4998125 -0.1723333333333333 4.439541666666666 -2.0523333333333333 4.643208333333333 -4.5501875 0.10672916666666667 -1.3052291666666667 0.21052083333333332 -2.9335833333333334 0.2868958333333333 -4.907583333333332" stroke-width="1"></path><path id="Vector 1356" stroke="#2859c5" stroke-linecap="round" stroke-linejoin="round" d="m35.25 26.4375 0 1.9583333333333333" stroke-width="1"></path></g></svg>